# xmcd CD database file
#
# Track frame offsets:
#	150
#	14277
#	31822
#	48010
#	68310
#	86885
#	100865
#	119745
#	138972
#	154575
#	188077
#	202860
#	232110
#
# Disc length: 3261 seconds
#
# Revision: 0
# Processed by: cddbd v1.5.1PL0 Copyright (c) Steve Scherf et al.
# Submitted via: CDex 1.51
#
DISCID=9e0cbb0d
DTITLE=Cyrus Chestnut - Blessed Quietness
DYEAR=1996
DGENRE=Jazz
TTITLE0=Over My Head
TTITLE1=Jesus Loves Me
TTITLE2=We Three Kings
TTITLE3=Walk With Me Jesus
TTITLE4=Silent Night
TTITLE5=Amazing Grace
TTITLE6=The Old Rugged Cross
TTITLE7=Holy, Holy, Holy
TTITLE8=The First Noel
TTITLE9=Blessed Quietness
TTITLE10=What A Friend We Have In Jesus
TTITLE11=Sometimes I Feel Like A Motherless Child
TTITLE12=Swing Low, Sweet Chariot
EXTD=YEAR: 1996
EXTT0=
EXTT1=
EXTT2=
EXTT3=
EXTT4=
EXTT5=
EXTT6=
EXTT7=
EXTT8=
EXTT9=
EXTT10=
EXTT11=
EXTT12=
PLAYORDER=
